<svg width="23" height="23" viewBox="0 0 23 23" fill="none" xmlns="http://www.w3.org/2000/svg">
<g clip-path="url(#clip0_2_85)">
<path d="M17.7355 0H5.00231C2.23961 0 0 2.23961 0 5.00231V17.7355C0 20.4982 2.23961 22.7378 5.00231 22.7378H17.7355C20.4982 22.7378 22.7378 20.4982 22.7378 17.7355V5.00231C22.7378 2.23961 20.4982 0 17.7355 0Z" fill="#242424"/>
<path fill-rule="evenodd" clip-rule="evenodd" d="M11.0982 4.6488C11.2657 4.55211 11.4721 4.55211 11.6396 4.6488L17.0533 7.77443C17.2208 7.87114 17.324 8.04988 17.324 8.24329V14.4945C17.324 14.688 17.2208 14.8667 17.0533 14.9634L15.7977 15.6883C15.5388 15.8378 15.2077 15.7491 15.0582 15.4901L14.5276 14.5712C14.3781 14.3123 14.4669 13.9812 14.7258 13.8317L14.9095 13.7256C15.077 13.6289 15.1802 13.4502 15.1802 13.2568V9.48103C15.1802 9.28763 15.077 9.10889 14.9095 9.0122L11.6396 7.12432C11.4721 7.0276 11.2657 7.0276 11.0982 7.12432L7.82828 9.0122C7.66078 9.10889 7.5576 9.28763 7.5576 9.48103V13.2568C7.5576 13.4502 7.66078 13.6289 7.82828 13.7256L11.0982 15.6135C11.2657 15.7102 11.4721 15.7102 11.6396 15.6135L11.7337 15.5591C11.9927 15.4097 12.3238 15.4984 12.4733 15.7573L13.0038 16.6762C13.1533 16.9352 13.0646 17.2663 12.8057 17.4158L11.6396 18.089C11.4721 18.1857 11.2657 18.1857 11.0982 18.089L5.68444 14.9634C5.51694 14.8667 5.41375 14.688 5.41375 14.4945V8.24329C5.41375 8.04988 5.51694 7.87114 5.68444 7.77443L11.0982 4.6488Z" fill="white"/>
</g>
<defs>
<clipPath id="clip0_2_85">
<rect width="22.7378" height="22.7378" fill="white"/>
</clipPath>
</defs>
</svg>
