<svg width="84" height="84" viewBox="0 0 84 84" fill="none" xmlns="http://www.w3.org/2000/svg">
<rect width="84" height="84" rx="18.48" fill="#000000"/>
<path fill-rule="evenodd" clip-rule="evenodd" d="M41 17.5773C41.6188 17.2201 42.3812 17.2201 43 17.5774L63 29.1244C63.6188 29.4816 64 30.1419 64 30.8564V53.9504C64 54.665 63.6188 55.3252 63 55.6825L58.3615 58.3605C57.4049 58.9128 56.1817 58.5851 55.6294 57.6285L53.6694 54.2336C53.1171 53.2771 53.4449 52.0539 54.4015 51.5016L55.08 51.1099C55.6988 50.7526 56.08 50.0923 56.08 49.3778V35.429C56.08 34.7145 55.6988 34.0542 55.08 33.697L43 26.7226C42.3812 26.3653 41.6188 26.3653 41 26.7226L28.92 33.697C28.3012 34.0542 27.92 34.7145 27.92 35.429V49.3778C27.92 50.0923 28.3012 50.7526 28.92 51.1099L41 58.0842C41.6188 58.4415 42.3812 58.4415 43 58.0842L43.3479 57.8834C44.3045 57.3311 45.5277 57.6588 46.08 58.6154L48.04 62.0102C48.5923 62.9668 48.2645 64.19 47.3079 64.7423L43 67.2295C42.3812 67.5867 41.6188 67.5867 41 67.2295L21 55.6825C20.3812 55.3252 20 54.665 20 53.9504V30.8564C20 30.1419 20.3812 29.4816 21 29.1244L41 17.5773Z" fill="#E9E9E9"/>
</svg>
